<!DOCTYPE svg PUBLIC "-//W3C//DTD SVG 1.1//EN" "http://www.w3.org/Graphics/SVG/1.1/DTD/svg11.dtd">

<!-- Uploaded to: SVG Repo, www.svgrepo.com, Transformed by: SVG Repo Mixer Tools -->
<svg fill="#64748b" width="800px" height="800px" viewBox="0 0 24 24" xmlns="http://www.w3.org/2000/svg">

<g id="SVGRepo_bgCarrier" stroke-width="0"/>

<g id="SVGRepo_tracerCarrier" stroke-linecap="round" stroke-linejoin="round"/>

<g id="SVGRepo_iconCarrier">

<path d="M22.372,5.071l-10-4A1,1,0,0,0,11,2V6H2A1,1,0,0,0,1,7V22a1,1,0,0,0,1,1H22a1,1,0,0,0,1-1V6A1,1,0,0,0,22.372,5.071ZM3,8h8V21H3ZM13,21V3.477l8,3.2V8H15v2h6v2H15v2h6v2H15v2h6v3ZM7,12h3v2H7ZM4,12H6v2H4ZM7,9h3v2H7ZM4,9H6v2H4Zm3,6h3v2H7ZM4,15H6v2H4Zm3,3h3v2H7ZM4,18H6v2H4Z"/>

</g>

</svg>