<!DOCTYPE svg PUBLIC "-//W3C//DTD SVG 1.1//EN" "http://www.w3.org/Graphics/SVG/1.1/DTD/svg11.dtd">

<!-- Uploaded to: SVG Repo, www.svgrepo.com, Transformed by: SVG Repo Mixer Tools -->
<svg version="1.1" id="Layer_1" xmlns="http://www.w3.org/2000/svg" xmlns:xlink="http://www.w3.org/1999/xlink" viewBox="0 0 512 512" xml:space="preserve" width="100%" height="" fill="#334155">

<g id="SVGRepo_bgCarrier" stroke-width="0"/>

<g id="SVGRepo_tracerCarrier" stroke-linecap="round" stroke-linejoin="round"/>

<g id="SVGRepo_iconCarrier"> <rect x="9.575" y="16.859" style="fill:#F8FAFC;" width="357.981" height="478.271"/> <path style="fill:#BBF7D0;" d="M426.661,99.578l38.502-82.713l38.502,82.713v371.667c0,13.194-10.695,23.89-23.89,23.89H450.55 c-13.194,0-23.89-10.695-23.89-23.89V99.578H426.661z"/> <path style="fill:#FF6F52;" d="M503.664,432.058v39.185c0,13.193-10.698,23.891-23.891,23.891h-29.228 c-13.193,0-23.879-10.698-23.879-23.891v-39.185H503.664z"/> <rect x="466.057" y="99.576" style="fill:#16A34A;" width="14.326" height="332.478"/> <path style="fill:#16A34A;" d="M426.661,471.246c0,13.194,10.695,23.89,23.89,23.89h7.285c-6.616,0-11.98-10.695-11.98-23.89V99.578 l19.307-82.713l-38.502,82.713V471.246z"/> <polygon style="fill:#FCD577;" points="503.664,99.579 426.666,99.579 465.159,16.863 "/> <path style="fill:#D33F22;" d="M457.84,495.134h-7.295c-13.193,0-23.879-10.698-23.879-23.891v-39.185h19.187v39.185 C445.853,484.436,451.226,495.134,457.84,495.134z"/> <polygon style="fill:#EAC36E;" points="445.853,99.579 426.666,99.579 465.159,16.863 "/> <path d="M366.941,7.91H8.955C4.009,7.91,0,11.92,0,16.865v49.863c0,4.945,4.009,8.955,8.955,8.955s8.955-4.009,8.955-8.955V25.82 h340.078V486.18H17.909V96.577c0-4.945-4.009-8.955-8.955-8.955S0,91.631,0,96.577v398.558c0,4.945,4.009,8.955,8.955,8.955h357.987 c4.945,0,8.955-4.009,8.955-8.955V16.865C375.896,11.92,371.888,7.91,366.941,7.91z"/> <path d="M503.045,347.889c4.945,0,8.955-4.009,8.955-8.955V99.578c0-1.306-0.285-2.596-0.837-3.779l-38.504-82.713 c-1.47-3.157-4.636-5.176-8.118-5.176s-6.648,2.019-8.118,5.176l-38.502,82.713c-0.55,1.183-0.837,2.474-0.837,3.779v371.667 c0,18.11,14.733,32.844,32.844,32.844h29.227c18.11,0,32.844-14.733,32.844-32.844V368.782c0-4.945-4.009-8.955-8.955-8.955 s-8.955,4.009-8.955,8.955v54.32h-59.097V108.533h59.097v230.402C494.091,343.88,498.1,347.889,503.045,347.889z M464.542,38.084 l24.457,52.54h-48.915L464.542,38.084z M494.091,441.012v30.234c0,8.235-6.699,14.935-14.935,14.935h-29.227 c-8.235,0-14.935-6.699-14.935-14.935v-30.234H494.091z"/> <path d="M283.758,79.263H92.139c-4.945,0-8.955,4.009-8.955,8.955c0,4.945,4.009,8.955,8.955,8.955h191.619 c4.945,0,8.955-4.009,8.955-8.955C292.713,83.272,288.703,79.263,283.758,79.263z"/> <path d="M313.216,171.352h-36.412c-4.945,0-8.955,4.009-8.955,8.955s4.009,8.955,8.955,8.955h36.413 c4.945,0,8.955-4.009,8.955-8.955S318.162,171.352,313.216,171.352z"/> <path d="M53.725,180.307c0,4.945,4.009,8.955,8.955,8.955h184.276c4.945,0,8.955-4.009,8.955-8.955s-4.009-8.955-8.955-8.955H62.68 C57.733,171.352,53.725,175.361,53.725,180.307z"/> <path d="M62.68,282.006h250.538c4.945,0,8.955-4.009,8.955-8.955s-4.009-8.955-8.955-8.955H62.68c-4.945,0-8.955,4.009-8.955,8.955 S57.733,282.006,62.68,282.006z"/> <path d="M313.216,217.725H135.329c-4.945,0-8.955,4.009-8.955,8.955s4.009,8.955,8.955,8.955h177.887 c4.945,0,8.955-4.009,8.955-8.955S318.162,217.725,313.216,217.725z"/> <path d="M62.68,235.634h42.802c4.945,0,8.955-4.009,8.955-8.955s-4.009-8.955-8.955-8.955H62.68c-4.945,0-8.955,4.009-8.955,8.955 S57.733,235.634,62.68,235.634z"/> <path d="M62.68,421.123h250.538c4.945,0,8.955-4.009,8.955-8.955s-4.009-8.955-8.955-8.955H62.68c-4.945,0-8.955,4.009-8.955,8.955 S57.733,421.123,62.68,421.123z"/> <path d="M313.216,356.843h-59.694c-4.945,0-8.955,4.009-8.955,8.955s4.009,8.955,8.955,8.955h59.694 c4.945,0,8.955-4.009,8.955-8.955S318.162,356.843,313.216,356.843z"/> <path d="M62.68,374.752h160.995c4.945,0,8.955-4.009,8.955-8.955s-4.009-8.955-8.955-8.955H62.68c-4.945,0-8.955,4.009-8.955,8.955 S57.733,374.752,62.68,374.752z"/> </g>

</svg>